# xmcd
#
# Track frame offsets: 
#        150
#        22006
#        42727
#        65774
#        88469
#        104255
#        125333
#        151552
#        174673
#        194657
#
# Disc length: 2892 seconds
#
# Revision: 0
# Processed by: cddbd v1.5.2PL0 Copyright (c) Steve Scherf et al.
# Submitted via: ExactAudioCopyFreeDBPlugin 1.0
#
DISCID=8f0b4a0a
DTITLE=Tommy Schneller Band - Backbeat [CD1)
DYEAR=2016
DGENRE=Blues
TTITLE0=Backbeat
TTITLE1=Trust In Yourself
TTITLE2=I Know What You're Thinking
TTITLE3=Tipsy's
TTITLE4=Barefootin'
TTITLE5=Let Your Soul Shine
TTITLE6=Cold Attitude
TTITLE7=The Sun Is Shining Again
TTITLE8=Love Is The Key
TTITLE9=Tryin' to Let Go
EXTD=
EXTT0=
EXTT1=
EXTT2=
EXTT3=
EXTT4=
EXTT5=
EXTT6=
EXTT7=
EXTT8=
EXTT9=
PLAYORDER=
